<?xml version="1.0" standalone="no"?>
<!DOCTYPE svg PUBLIC "-//W3C//DTD SVG 20010904//EN"
 "http://www.w3.org/TR/2001/REC-SVG-20010904/DTD/svg10.dtd">
<svg version="1.0" xmlns="http://www.w3.org/2000/svg"
 width="348.000000pt" height="348.000000pt" viewBox="0 0 348.000000 348.000000"
 preserveAspectRatio="xMidYMid meet">
<metadata>
Created by potrace 1.14, written by Peter Selinger 2001-2017
</metadata>
<g transform="translate(0.000000,348.000000) scale(0.100000,-0.100000)"
fill="#000000" stroke="none">
<path d="M1506 3469 c-555 -64 -1071 -430 -1324 -939 -78 -155 -116 -265 -152
-435 -27 -124 -37 -402 -22 -555 38 -370 206 -728 471 -1003 337 -350 771
-533 1261 -531 181 0 286 13 430 50 328 86 579 232 816 475 225 232 356 465
438 779 37 145 50 249 50 430 1 339 -78 629 -249 910 -75 124 -131 195 -239
308 -272 282 -655 473 -1030 512 -106 11 -351 11 -450 -1z m402 -150 c420 -46
765 -222 1035 -527 171 -194 300 -448 359 -707 16 -71 22 -137 25 -306 5 -243
-8 -351 -68 -539 -147 -462 -523 -849 -981 -1009 -252 -88 -602 -110 -873 -56
-111 23 -268 76 -366 126 -140 70 -337 214 -246 180 18 -7 24 -6 24 4 0 8 -4
12 -9 9 -4 -3 -8 -3 -8 0 0 3 12 13 28 21 16 10 19 14 7 11 -19 -6 -19 -5 -3
7 10 8 15 17 11 20 -3 4 1 7 11 7 11 0 14 4 10 12 -5 8 -1 9 12 4 15 -6 16 -4
7 5 -9 9 -2 24 30 65 23 29 49 53 57 54 10 1 11 3 2 7 -8 3 -5 11 10 25 13 11
16 16 8 12 -8 -4 -4 5 10 21 14 16 18 25 10 21 -8 -4 -6 0 5 9 11 9 19 23 17
31 -2 8 2 14 8 14 6 0 9 4 5 9 -3 5 0 13 6 16 5 4 8 14 5 22 -4 9 -1 22 5 29
6 8 9 14 5 14 -3 0 -2 10 3 23 9 22 7 23 -27 22 -21 -1 -43 3 -51 9 -11 8 -13
8 -7 -1 7 -12 -5 -18 -27 -14 -5 1 -6 -3 -2 -9 3 -5 1 -10 -5 -10 -6 0 -8 -5
-4 -12 5 -8 0 -7 -11 2 -10 8 -16 10 -12 4 7 -11 -19 -29 -36 -25 -5 1 -6 -3
-2 -9 3 -5 0 -10 -8 -10 -17 0 -77 -64 -77 -82 0 -9 -3 -8 -10 2 -8 12 -10 11
-10 -7 0 -12 -4 -25 -10 -28 -6 -3 -7 1 -4 12 3 10 -2 6 -11 -9 -8 -16 -22
-28 -30 -28 -8 0 -22 -11 -31 -25 -9 -14 -21 -22 -28 -18 -6 4 -4 -2 4 -12 9
-11 10 -16 3 -11 -9 5 -13 1 -14 -11 0 -16 -1 -16 -9 2 -8 19 -9 19 -9 -2 -1
-12 -5 -25 -11 -28 -6 -3 -7 1 -4 12 5 16 4 16 -7 -1 -9 -15 -9 -23 1 -39 11
-18 10 -18 -19 2 -44 32 -188 215 -240 305 -140 245 -204 493 -204 786 1 282
49 495 163 725 71 143 159 268 266 379 360 372 832 549 1322 495z m-888 -2355
c0 -8 -19 -13 -24 -6 -3 5 1 9 9 9 8 0 15 -2 15 -3z m31 -17 c-10 -9 -11 -8
-5 6 3 10 9 15 12 12 3 -3 0 -11 -7 -18z m-172 -60 c-2 -1 -15 -11 -29 -22
l-25 -20 19 23 c11 12 24 22 29 22 6 0 8 -1 6 -3z m-166 -152 c-3 -9 -8 -14
-10 -11 -3 3 -2 9 2 15 9 16 15 13 8 -4z"/>
<path d="M790 2975 c-7 -8 -9 -15 -5 -15 4 0 1 -8 -6 -17 -13 -17 -13 -17 5
-3 18 14 19 13 13 -2 -9 -24 0 -23 13 2 6 11 7 20 3 19 -20 -3 -24 2 -13 16 7
8 10 15 7 15 -2 0 -10 -7 -17 -15z"/>
<path d="M810 2913 c0 -6 8 -17 18 -24 16 -13 16 -13 2 6 -8 11 -16 22 -17 24
-2 2 -3 0 -3 -6z"/>
<path d="M859 2895 c-1 -3 -2 -11 -3 -17 -1 -7 -8 -12 -16 -10 -11 3 -11 0 0
-12 14 -17 21 -20 19 -8 -1 4 0 9 1 12 5 13 8 40 4 40 -2 0 -5 -2 -5 -5z"/>
<path d="M874 2835 c0 -13 3 -22 7 -19 8 4 6 30 -2 38 -3 3 -5 -5 -5 -19z"/>
<path d="M895 2811 c-3 -5 -1 -12 5 -16 6 -4 7 -12 3 -18 -4 -7 0 -6 10 2 20
16 22 22 5 19 -7 -2 -12 3 -10 10 2 14 -4 16 -13 3z"/>
<path d="M926 2771 c-14 -15 -15 -21 -4 -27 7 -4 10 -3 5 1 -4 5 0 17 10 27 9
10 14 18 11 18 -3 0 -13 -9 -22 -19z"/>
<path d="M1331 2659 c-90 -18 -169 -85 -204 -177 -15 -38 -17 -113 -17 -758
l0 -715 24 -47 c28 -56 90 -115 143 -138 49 -20 166 -21 215 -1 20 9 211 116
425 240 213 123 469 270 568 327 99 57 197 119 218 139 62 58 87 117 87 203
-1 127 -43 190 -184 272 -662 385 -1095 631 -1125 641 -56 19 -102 24 -150 14z
m303 -601 c-10 -16 -13 -48 -3 -43 5 4 7 10 4 15 -3 5 -1 11 5 15 5 3 10 -1
10 -9 0 -8 4 -17 9 -20 5 -4 7 4 4 16 -6 23 -6 22 16 -2 12 -14 20 -20 17 -13
-4 6 -2 14 4 18 6 4 7 12 3 18 -4 7 0 6 10 -2 9 -7 17 -19 17 -25 0 -6 -5 -4
-10 4 -7 12 -9 10 -7 -7 1 -15 5 -19 13 -13 7 7 17 3 29 -10 17 -19 41 -18 29
1 -3 5 -9 7 -13 5 -3 -3 -7 4 -7 15 0 19 1 19 16 -1 13 -17 18 -18 28 -8 11
11 13 10 10 -2 -2 -8 2 -14 9 -15 6 0 15 -4 20 -9 5 -5 3 -6 -4 -2 -8 4 -13 2
-13 -6 0 -9 -3 -9 -10 2 -7 12 -9 10 -7 -7 0 -12 6 -19 12 -15 5 4 22 7 37 8
20 0 25 -3 17 -12 -7 -8 -4 -14 8 -19 10 -5 21 -8 25 -7 9 2 4 -26 -7 -35 -4
-4 -5 -2 0 6 6 10 4 12 -5 6 -9 -6 -11 -4 -5 5 6 9 4 11 -5 5 -9 -6 -11 -4 -5
5 5 9 4 11 -3 6 -11 -6 -16 5 -13 26 1 8 -26 4 -36 -6 -4 -4 -3 -6 3 -4 12 4
76 -66 68 -75 -3 -3 0 -8 7 -13 8 -4 10 -3 5 4 -4 7 -1 12 6 12 9 0 9 3 -2 10
-12 7 -10 9 8 7 14 -1 18 -5 12 -11 -17 -17 -11 -29 8 -15 16 13 16 12 2 -5
-16 -21 -23 -49 -9 -40 5 3 6 10 3 16 -4 6 -2 8 4 5 5 -4 8 -17 5 -30 -4 -18
-3 -19 6 -7 15 21 14 6 -3 -34 -11 -26 -11 -33 -1 -33 7 0 11 5 9 11 -3 7 3
20 11 31 16 19 16 19 6 -2 -16 -31 -14 -37 7 -22 16 13 16 13 0 -7 -10 -11
-18 -24 -18 -29 0 -4 8 -1 18 6 15 13 16 12 4 -3 -8 -10 -12 -31 -9 -51 2 -19
-1 -41 -9 -52 -7 -10 -11 -22 -7 -28 3 -6 1 -7 -5 -3 -6 4 -9 13 -5 21 3 8 1
15 -4 15 -5 0 -8 -18 -7 -40 1 -22 -2 -38 -7 -35 -4 3 -6 13 -3 23 5 14 4 14
-4 3 -7 -10 -7 -21 -1 -32 6 -12 5 -20 -1 -24 -6 -4 -8 -10 -5 -14 2 -5 -5
-17 -17 -27 -12 -11 -18 -13 -14 -6 4 6 2 12 -4 12 -6 0 -8 5 -4 11 5 8 9 8
14 -1 5 -9 9 -9 14 -1 4 6 1 11 -6 11 -9 0 -9 3 2 10 12 7 10 9 -7 7 -12 0
-21 -6 -20 -12 1 -5 -4 -9 -11 -7 -9 2 -10 -2 -1 -16 9 -14 9 -23 0 -38 -11
-18 -12 -18 -6 3 3 12 1 24 -4 28 -7 4 -8 -1 -4 -12 6 -16 5 -17 -13 -3 -15
11 -16 11 -6 0 6 -8 12 -21 12 -29 0 -12 -3 -11 -13 3 -12 16 -13 15 -11 -13
1 -17 -2 -29 -7 -26 -4 3 -6 12 -3 19 3 8 1 16 -4 20 -5 3 -8 -8 -7 -23 1 -21
-3 -28 -14 -26 -9 1 -19 -3 -24 -9 -4 -6 -5 2 -3 18 3 16 2 25 -2 21 -4 -3 -8
-11 -8 -16 -1 -5 -3 -17 -4 -26 -1 -13 -4 -11 -10 7 -7 22 -8 23 -9 4 -1 -12
-8 -27 -17 -34 -8 -8 -14 -9 -13 -4 1 5 -1 17 -6 27 -7 17 -10 16 -27 -10 -15
-22 -18 -24 -16 -8 2 14 -3 20 -17 20 -11 0 -27 4 -35 10 -12 7 -13 6 -3 -7 7
-8 9 -19 5 -23 -4 -5 -1 -5 7 0 10 6 12 4 6 -5 -6 -10 -13 -6 -28 14 -16 23
-22 25 -35 14 -13 -11 -15 -10 -9 5 4 11 3 16 -4 12 -5 -4 -7 -15 -4 -25 3
-10 1 -21 -4 -25 -7 -4 -8 1 -4 11 4 12 3 15 -5 10 -14 -8 -33 33 -24 49 3 6
-1 4 -10 -3 -14 -11 -18 -10 -26 4 -8 15 -10 15 -15 0 -4 -9 -2 -15 5 -13 6 1
13 -5 15 -13 4 -13 3 -13 -6 0 -6 8 -11 11 -11 6 0 -5 -8 -2 -18 7 -10 10 -22
14 -26 10 -4 -5 -6 -1 -4 7 1 8 -2 14 -7 13 -6 -1 -12 8 -12 19 -2 18 3 16 27
-13 16 -19 29 -28 30 -21 0 6 -5 12 -11 12 -5 0 -7 5 -3 12 5 7 3 8 -6 3 -10
-6 -12 -4 -7 8 4 10 2 16 -6 14 -7 -1 -10 5 -9 13 2 8 0 12 -3 8 -4 -4 -17 -3
-29 3 -20 10 -20 9 -2 -5 18 -14 18 -15 -2 -13 -22 1 -23 17 -2 42 7 9 9 15 4
14 -20 -3 -35 2 -29 10 3 5 1 12 -4 16 -5 3 -8 14 -6 25 2 12 0 18 -4 15 -12
-7 -20 32 -16 73 1 18 -2 35 -7 38 -5 3 -1 15 9 27 18 21 18 21 -1 7 -18 -14
-19 -13 -11 5 4 11 10 32 13 47 2 15 8 25 13 22 5 -3 6 3 2 12 -5 13 -3 15 7
9 8 -5 11 -4 7 2 -4 6 0 16 8 23 8 7 13 16 10 20 -3 5 -1 11 5 15 5 3 10 14 9
23 0 12 -4 9 -11 -8 -6 -14 -10 -29 -9 -33 1 -5 -4 -5 -10 -1 -8 5 -9 3 -4 -6
6 -9 4 -11 -4 -5 -9 5 -10 10 -2 18 7 7 7 15 -2 26 -11 14 -10 15 7 1 18 -14
19 -13 13 8 -3 13 -3 21 0 18 4 -3 14 1 24 10 13 12 19 12 25 3 5 -8 3 -10 -6
-4 -9 6 -11 4 -5 -5 6 -9 4 -11 -5 -5 -9 6 -11 4 -5 -5 6 -10 14 -7 32 14 12
15 23 24 23 20 0 -4 9 1 20 11 11 10 20 15 20 10 0 -4 7 -2 15 5 8 7 15 18 15
24 0 6 -5 4 -11 -4 -9 -13 -10 -13 -6 0 2 8 10 14 17 12 8 -2 10 3 6 13 -3 9
-2 13 4 10 6 -4 8 -18 6 -32 -3 -14 -2 -22 2 -18 4 3 8 11 8 16 1 5 2 14 3 19
0 6 9 10 19 10 15 0 15 -2 2 -11 -13 -9 -13 -10 1 -6 9 3 22 0 28 -6 7 -7 12
-7 11 -2 -4 20 0 35 10 35 5 0 7 -8 4 -17 -5 -17 -5 -17 6 0 6 9 9 21 6 25 -3
5 1 9 9 9 8 0 12 -4 9 -9z m54 -19 c-3 -8 -7 -3 -11 10 -4 17 -3 21 5 13 5 -5
8 -16 6 -23z m-110 -4 c-3 -3 -9 2 -12 12 -6 14 -5 15 5 6 7 -7 10 -15 7 -18z
m176 -11 c3 -8 2 -12 -4 -9 -6 3 -10 10 -10 16 0 14 7 11 14 -7z m-283 -15 c6
-12 7 -19 1 -15 -5 3 -15 -1 -22 -9 -7 -8 -16 -12 -21 -10 -4 3 -12 -3 -18
-12 -9 -16 -10 -16 -8 4 0 12 6 21 12 20 5 -1 9 3 8 10 -2 7 6 10 18 8 15 -3
19 0 15 10 -8 22 2 18 15 -6z m-155 -171 c-9 -12 -16 -32 -16 -43 0 -11 -4
-26 -9 -33 -7 -11 -9 -10 -14 3 -4 9 -3 13 3 10 6 -3 10 3 10 14 0 26 21 71
32 71 5 0 2 -10 -6 -22z m-31 -118 c-3 -5 -1 -11 4 -14 5 -3 7 -22 5 -41 -2
-20 2 -48 8 -63 6 -15 12 -30 13 -34 2 -5 4 -10 5 -13 1 -3 3 -10 4 -15 0 -6
8 -15 16 -20 12 -7 10 -9 -7 -7 -12 0 -20 3 -18 6 3 2 0 10 -6 18 -6 7 -8 13
-4 13 4 0 2 7 -5 15 -7 8 -10 15 -6 15 3 0 1 12 -5 28 -14 33 -19 133 -7 126
4 -3 6 -9 3 -14z m202 -342 c-3 -8 -6 -5 -6 6 -1 11 2 17 5 13 3 -3 4 -12 1
-19z m88 -28 c-5 -8 -11 -8 -17 -2 -6 6 -7 16 -3 22 5 8 11 8 17 2 6 -6 7 -16
3 -22z m64 -2 c-5 -10 -11 -18 -12 -18 -2 0 -3 8 -3 18 0 10 6 19 13 19 8 0 9
-6 2 -19z m42 -1 c-10 -9 -11 -8 -5 6 3 10 9 15 12 12 3 -3 0 -11 -7 -18z"/>
<path d="M1957 1682 c1 -20 2 -43 2 -50 1 -7 5 -11 10 -8 9 6 4 76 -7 88 -4 4
-6 -10 -5 -30z"/>
<path d="M1783 1409 c-2 -23 3 -25 10 -4 4 8 3 16 -1 19 -4 3 -9 -4 -9 -15z"/>
<path d="M1511 1384 c0 -11 3 -14 6 -6 3 7 2 16 -1 19 -3 4 -6 -2 -5 -13z"/>
<path d="M1706 1392 c-2 -4 -1 -14 4 -22 7 -11 9 -9 7 8 -1 24 -3 26 -11 14z"/>
<path d="M322 1903 c8 -10 8 -17 0 -25 -12 -12 -13 -10 -16 12 0 6 -5 10 -11
10 -5 0 -11 -4 -11 -10 -3 -23 -5 -24 -15 -10 -8 12 -9 10 -4 -9 5 -16 4 -21
-4 -17 -6 4 -11 13 -11 21 0 22 -42 13 -49 -10 -4 -17 -6 -16 -12 10 l-8 30 2
-29 c1 -18 8 -30 18 -32 12 -1 15 4 12 20 -3 17 -1 16 12 -6 18 -31 28 -37 18
-10 -6 15 -5 15 10 3 9 -7 15 -17 12 -20 -2 -4 3 -8 11 -8 9 0 11 4 5 10 -11
11 -3 39 10 31 5 -3 6 -10 3 -16 -4 -6 -2 -8 4 -4 6 3 14 2 17 -4 5 -8 12 -7
23 2 14 11 15 10 9 -7 -7 -19 -6 -19 7 -2 14 18 15 18 26 0 9 -15 11 -15 6 -1
-2 9 2 22 11 30 14 11 15 10 9 -12 -5 -17 -4 -21 2 -11 5 7 12 9 14 5 4 -8 0
10 -5 26 -1 3 3 6 8 8 6 1 11 -2 11 -8 1 -5 3 -13 4 -17 1 -5 2 -12 1 -17 -1
-5 4 -4 12 2 11 10 17 9 27 -3 16 -19 32 -9 28 18 -2 12 2 22 9 22 6 0 14 3
18 7 9 8 -16 5 -32 -5 -6 -4 -9 -17 -5 -29 5 -19 4 -20 -10 -7 -9 7 -14 17
-12 21 2 4 0 10 -6 13 -6 4 -9 2 -8 -3 2 -6 -1 -9 -7 -8 -5 0 -10 8 -9 17 1
19 -50 20 -52 1 -3 -25 -6 -26 -14 -7 -7 16 -9 17 -9 3 -1 -9 -6 -20 -12 -24
-8 -4 -9 1 -5 17 l7 24 -14 -24 c-9 -14 -17 -19 -21 -13 -3 6 -2 13 3 17 14 8
9 42 -6 42 -10 0 -10 -4 -1 -14z m-7 -43 c10 -11 16 -20 13 -20 -3 0 -13 9
-23 20 -10 11 -16 20 -13 20 3 0 13 -9 23 -20z"/>
<path d="M549 1875 c-1 -3 -3 -9 -4 -15 -1 -5 -3 -13 -4 -17 -1 -5 -6 -1 -12
7 -9 13 -10 13 -6 -1 3 -9 0 -23 -6 -30 -10 -10 -9 -11 3 -2 18 14 31 14 45 3
7 -6 11 1 12 18 1 22 0 23 -6 8 -9 -22 -20 -10 -16 17 3 15 -3 26 -6 12z"/>
<path d="M592 1844 c-1 -13 0 -24 2 -24 7 0 14 40 7 44 -4 3 -8 -6 -9 -20z"/>
<path d="M621 1863 c-1 -6 -4 -20 -7 -30 -5 -15 -4 -15 5 -3 9 13 11 12 12 -5
0 -11 3 -15 5 -9 3 6 0 22 -5 35 -5 13 -10 19 -10 12z"/>
<path d="M645 1861 c-3 -5 -1 -12 4 -16 5 -3 8 -15 6 -26 -3 -16 -1 -18 9 -10
7 6 17 7 21 3 5 -4 5 -2 1 5 -3 6 -2 14 3 17 5 4 12 -2 14 -11 4 -17 5 -17 6
0 0 10 5 16 11 12 5 -3 7 -13 4 -23 -4 -10 -2 -13 3 -7 12 16 39 11 35 -5 -2
-10 3 -8 19 5 20 18 22 18 16 2 -4 -11 -3 -16 3 -12 5 3 8 16 6 28 -2 15 -10
21 -30 23 -15 0 -29 -3 -32 -8 -3 -4 -10 -6 -15 -2 -5 3 -6 11 -2 17 4 7 0 6
-10 -2 -14 -11 -17 -11 -17 0 0 9 -3 10 -8 4 -10 -15 -38 -12 -34 3 2 14 -4
16 -13 3z m143 -38 c-7 -9 -14 -10 -23 -3 -6 5 -16 6 -20 2 -5 -4 -6 -2 -2 4
3 5 17 10 31 10 20 0 23 -3 14 -13z"/>
<path d="M906 1831 c-3 -5 -19 -7 -36 -6 -16 1 -27 -1 -25 -6 3 -4 1 -10 -4
-13 -5 -4 -12 1 -14 9 -4 11 -4 10 -3 -2 1 -10 6 -18 13 -18 6 0 15 -3 19 -7
4 -4 12 -4 18 1 6 5 16 10 21 10 6 1 10 4 10 9 0 4 4 13 8 20 5 6 6 12 3 12
-3 0 -7 -4 -10 -9z m-9 -26 c4 -4 3 -5 -4 -1 -6 3 -14 2 -18 -4 -4 -6 -11 -8
-16 -4 -5 3 -7 9 -4 14 6 10 31 7 42 -5z"/>
<path d="M910 628 c-19 -24 -26 -37 -17 -29 19 15 61 71 54 71 -2 0 -19 -19
-37 -42z"/>
</g>
</svg>
